<?xml version="1.0" encoding="utf-8"?>
<!-- Generator: Adobe Illustrator 16.0.0, SVG Export Plug-In . SVG Version: 6.00 Build 0)  -->
<!DOCTYPE svg PUBLIC "-//W3C//DTD SVG 1.1//EN" "http://www.w3.org/Graphics/SVG/1.1/DTD/svg11.dtd">
<svg version="1.1" id="Layer_1" xmlns="http://www.w3.org/2000/svg" xmlns:xlink="http://www.w3.org/1999/xlink" x="0px" y="0px"
	 width="100px" height="100px" viewBox="0 0 100 100" enable-background="new 0 0 100 100" xml:space="preserve">
<g>
	<path d="M9.026,62.297l2.955-5.217c0.503-0.818,1.697-0.693,2.137-0.379c0.251,0.127,4.777,3.459,8.924,3.459
		c2.516,0,4.338-1.572,4.338-3.773c0-2.639-2.199-4.648-6.475-6.348C15.502,47.904,8.712,43.693,8.712,36.15
		c0-6.223,4.842-12.508,14.521-12.508c6.535,0,11.562,3.332,13.447,4.715c0.755,0.441,0.629,1.57,0.377,2.012l-3.205,4.84
		c-0.439,0.689-1.57,1.256-2.136,0.816c-0.567-0.314-5.155-3.771-8.989-3.771c-2.262,0-3.957,1.508-3.957,3.205
		c0,2.326,1.884,4.084,6.851,6.096c4.901,1.949,12.694,5.783,12.694,14.33c0,6.475-5.594,13.01-14.833,13.01
		c-8.17,0-12.696-3.393-14.141-4.84C8.712,63.428,8.524,63.176,9.026,62.297z"/>
	<path d="M68.661,23.643c12.57,0,22.627,10.119,22.627,22.689c0,8.17-4.715,15.588-11.627,19.797l8.107,12.697
		c0.502,0.879,0,1.885-1.007,1.885h-8.485c-0.502,0-0.815-0.314-1.004-0.629l-6.662-11.25c-0.755,0.062-1.51,0.062-1.949,0.062
		c-12.569,0-22.562-9.994-22.562-22.562C46.099,33.762,56.092,23.643,68.661,23.643z M68.661,58.838
		c6.914,0,12.57-5.656,12.57-12.506c0-6.914-5.656-12.633-12.57-12.633c-6.85,0-12.506,5.719-12.506,12.633
		C56.155,53.182,61.812,58.838,68.661,58.838z"/>
</g>
<g>
	<path d="M92,2c3.309,0,6,2.691,6,6v84c0,3.309-2.691,6-6,6H8c-3.309,0-6-2.691-6-6V8c0-3.309,2.691-6,6-6H92 M92,0H8
		C3.6,0,0,3.6,0,8v84c0,4.4,3.6,8,8,8h84c4.4,0,8-3.6,8-8V8C100,3.6,96.4,0,92,0L92,0z"/>
</g>
</svg>
