<?xml version="1.0" encoding="utf-8"?>
<!-- Generator: Adobe Illustrator 16.0.0, SVG Export Plug-In . SVG Version: 6.00 Build 0)  -->
<!DOCTYPE svg PUBLIC "-//W3C//DTD SVG 1.1//EN" "http://www.w3.org/Graphics/SVG/1.1/DTD/svg11.dtd">
<svg version="1.1" id="Layer_1" xmlns="http://www.w3.org/2000/svg" xmlns:xlink="http://www.w3.org/1999/xlink" x="0px" y="0px"
	 width="100px" height="100px" viewBox="0 0 100 100" enable-background="new 0 0 100 100" xml:space="preserve">
<g>
	<path d="M100,97c0,1.65-1.35,3-3,3H3c-1.65,0-3-1.35-3-3V3c0-1.65,1.35-3,3-3h94c1.65,0,3,1.35,3,3V97z"/>
	<path fill="#FFFFFF" d="M9.027,62.297l2.953-5.219c0.504-0.816,1.698-0.691,2.138-0.377c0.251,0.127,4.776,3.459,8.924,3.459
		c2.516,0,4.339-1.572,4.339-3.773c0-2.639-2.199-4.647-6.477-6.348C15.502,47.904,8.713,43.693,8.713,36.15
		c0-6.223,4.84-12.508,14.521-12.508c6.536,0,11.562,3.332,13.447,4.715c0.755,0.441,0.629,1.57,0.378,2.012l-3.206,4.84
		c-0.439,0.689-1.569,1.256-2.136,0.816c-0.566-0.314-5.154-3.771-8.989-3.771c-2.263,0-3.958,1.508-3.958,3.205
		c0,2.326,1.885,4.084,6.852,6.096c4.902,1.949,12.693,5.783,12.693,14.33c0,6.475-5.592,13.01-14.832,13.01
		c-8.17,0-12.695-3.393-14.141-4.84C8.713,63.428,8.523,63.176,9.027,62.297z"/>
	<path fill="#FFFFFF" d="M68.662,23.643c12.57,0,22.626,10.119,22.626,22.689c0,8.17-4.715,15.588-11.626,19.797l8.105,12.697
		c0.504,0.879,0,1.885-1.006,1.885h-8.486c-0.5,0-0.814-0.314-1.004-0.629l-6.662-11.25c-0.754,0.062-1.508,0.062-1.947,0.062
		c-12.57,0-22.564-9.994-22.564-22.562C46.098,33.762,56.092,23.643,68.662,23.643z M68.662,58.838
		c6.914,0,12.57-5.656,12.57-12.506c0-6.914-5.656-12.633-12.57-12.633c-6.85,0-12.506,5.719-12.506,12.633
		C56.156,53.182,61.812,58.838,68.662,58.838z"/>
</g>
</svg>
